# xmcd CD database file
#
# Track frame offsets:
#	182
#	29555
#	56930
#	87310
#	113375
#	132847
#	157585
#
# Disc length: 2362 seconds
#
# Revision: 0
# Processed by: cddbd v1.5.1PL0 Copyright (c) Steve Scherf et al.
# Submitted via: CDex 1.50
#
DISCID=4f093807
DTITLE=Yusef Lateef - In Nigeria
DYEAR=1995
DGENRE=Jazz
TTITLE0=Mu, Omi (Drink Water)
TTITLE1=Drama Village
TTITLE2=Akima (Birth)
TTITLE3=Blues in the Adaji
TTITLE4=Lalit (Lovers' Separation)
TTITLE5=Curved Spacetime
TTITLE6=Ruwa Maizurufi (Deep Water)
EXTD=YEAR: 1995
EXTT0=
EXTT1=
EXTT2=
EXTT3=
EXTT4=
EXTT5=
EXTT6=
PLAYORDER=
